<svg data-name="Layer 1" viewBox="0 0 64 64" xmlns="http://www.w3.org/2000/svg"><rect height="6" rx="2" width="4" x="23" y="15" fill="#003366" class="fill-333333"></rect><rect height="6" rx="2" transform="rotate(-90 10 33)" width="4" x="8" y="30" fill="#003366" class="fill-333333"></rect><rect height="6" rx="2" transform="rotate(-135 14.395 43.606)" width="4" x="12.39" y="40.61" fill="#003366" class="fill-333333"></rect><rect height="6" rx="2" transform="rotate(-135 35.608 22.396)" width="4" x="33.61" y="19.39" fill="#003366" class="fill-333333"></rect><rect height="6" rx="2" transform="rotate(135 14.396 22.394)" width="4" x="12.39" y="19.39" fill="#003366" class="fill-333333"></rect><path d="M19.18 39.84A8 8 0 0 1 26 36h.06l.13-.13a12.08 12.08 0 0 1 5.94-8.33 9 9 0 1 0-13 12.3Z" fill="#003366" class="fill-333333"></path><path d="M50 34a8.12 8.12 0 0 0-2.66.46A10 10 0 0 0 28 38v.36a5.88 5.88 0 0 0-2-.36 6 6 0 0 0 0 12h24a8 8 0 0 0 0-16Z" fill="#003366" class="fill-333333"></path></svg>