<svg viewBox="0 0 64 64" xmlns="http://www.w3.org/2000/svg"><circle cx="38" cy="26" r="15" fill="#fdd020" class="fill-fdd020"></circle><path d="M38 8a1 1 0 0 1-1-1V3a1 1 0 0 1 2 0v4a1 1 0 0 1-1 1ZM61 27h-4a1 1 0 0 1 0-2h4a1 1 0 0 1 0 2Z" fill="#fdd020" class="fill-fdd020"></path><path d="M50 39a11 11 0 0 0-2.178.218 8.983 8.983 0 0 0-12.581-6.387A11.989 11.989 0 0 0 12.7 41.015 9.995 9.995 0 0 0 13 61h37a11 11 0 0 0 0-22Z" fill="#003366" class="fill-a3d4f7"></path><path d="m24 12-4-4M24 13a1 1 0 0 1-.707-.293l-4-4a1 1 0 1 1 1.414-1.414l4 4A1 1 0 0 1 24 13ZM52 12l4-4M52 13a1 1 0 0 1-.707-1.707l4-4a1 1 0 1 1 1.414 1.414l-4 4A1 1 0 0 1 52 13Z" fill="#fdd020" class="fill-fdd020"></path></svg>