<svg data-name="Layer 1" viewBox="0 0 64 64" xmlns="http://www.w3.org/2000/svg"><path d="M43 22a8.12 8.12 0 0 0-2.66.46A10 10 0 0 0 21 26v.36a5.88 5.88 0 0 0-2-.36 6 6 0 0 0 0 12h24a8 8 0 0 0 0-16ZM19 44a1 1 0 0 1-.71-.29 1 1 0 0 1 0-1.42l2-2a1 1 0 0 1 1.42 1.42l-2 2A1 1 0 0 1 19 44ZM27 44a1 1 0 0 1-.71-.29 1 1 0 0 1 0-1.42l2-2a1 1 0 0 1 1.42 1.42l-2 2A1 1 0 0 1 27 44ZM34 44a1 1 0 0 1-.71-.29 1 1 0 0 1 0-1.42l2-2a1 1 0 0 1 1.42 1.42l-2 2A1 1 0 0 1 34 44ZM41 44a1 1 0 0 1-.71-.29 1 1 0 0 1 0-1.42l2-2a1 1 0 0 1 1.42 1.42l-2 2A1 1 0 0 1 41 44ZM22 48a1 1 0 0 1-.71-.29 1 1 0 0 1 0-1.42l2-2a1 1 0 0 1 1.42 1.42l-2 2A1 1 0 0 1 22 48ZM29 49a1 1 0 0 1-.71-.29 1 1 0 0 1 0-1.42l2-2a1 1 0 0 1 1.42 1.42l-2 2A1 1 0 0 1 29 49ZM36 49a1 1 0 0 1-.71-.29 1 1 0 0 1 0-1.42l2-2a1 1 0 0 1 1.42 1.42l-2 2A1 1 0 0 1 36 49Z" fill="#003366" class="fill-333333"></path></svg>