<svg data-name="Layer 1" viewBox="0 0 64 64" xmlns="http://www.w3.org/2000/svg"><path d="M32 53a1 1 0 0 1-1-1V12a1 1 0 0 1 2 0v40a1 1 0 0 1-1 1Z" fill="#003366" class="fill-333333"></path><path d="M32 17a1 1 0 0 1-.71-.29 1 1 0 0 1 0-1.42l4-4a1 1 0 0 1 1.42 1.42l-4 4A1 1 0 0 1 32 17Z" fill="#003366" class="fill-333333"></path><path d="M32 17a1 1 0 0 1-.71-.29l-4-4a1 1 0 0 1 1.42-1.42l4 4a1 1 0 0 1 0 1.42A1 1 0 0 1 32 17ZM32 23a1 1 0 0 1-.71-.29 1 1 0 0 1 0-1.42l4-4a1 1 0 0 1 1.42 1.42l-4 4A1 1 0 0 1 32 23Z" fill="#003366" class="fill-333333"></path><path d="M32 23a1 1 0 0 1-.71-.29l-4-4a1 1 0 0 1 1.42-1.42l4 4a1 1 0 0 1 0 1.42A1 1 0 0 1 32 23ZM36 53a1 1 0 0 1-.71-.29l-4-4a1 1 0 0 1 1.42-1.42l4 4a1 1 0 0 1 0 1.42A1 1 0 0 1 36 53Z" fill="#003366" class="fill-333333"></path><path d="M28 53a1 1 0 0 1-.71-.29 1 1 0 0 1 0-1.42l4-4a1 1 0 0 1 1.42 1.42l-4 4A1 1 0 0 1 28 53ZM36 47a1 1 0 0 1-.71-.29l-4-4a1 1 0 0 1 1.42-1.42l4 4a1 1 0 0 1 0 1.42A1 1 0 0 1 36 47Z" fill="#003366" class="fill-333333"></path><path d="M28 47a1 1 0 0 1-.71-.29 1 1 0 0 1 0-1.42l4-4a1 1 0 0 1 1.42 1.42l-4 4A1 1 0 0 1 28 47ZM52 33H12a1 1 0 0 1 0-2h40a1 1 0 0 1 0 2Z" fill="#003366" class="fill-333333"></path><path d="M52 37a1 1 0 0 1-.71-.29l-4-4a1 1 0 0 1 1.42-1.42l4 4a1 1 0 0 1 0 1.42A1 1 0 0 1 52 37Z" fill="#003366" class="fill-333333"></path><path d="M48 33a1 1 0 0 1-.71-.29 1 1 0 0 1 0-1.42l4-4a1 1 0 0 1 1.42 1.42l-4 4A1 1 0 0 1 48 33ZM46 37a1 1 0 0 1-.71-.29l-4-4a1 1 0 0 1 1.42-1.42l4 4a1 1 0 0 1 0 1.42A1 1 0 0 1 46 37Z" fill="#003366" class="fill-333333"></path><path d="M42 33a1 1 0 0 1-.71-.29 1 1 0 0 1 0-1.42l4-4a1 1 0 0 1 1.42 1.42l-4 4A1 1 0 0 1 42 33ZM12 37a1 1 0 0 1-.71-.29 1 1 0 0 1 0-1.42l4-4a1 1 0 0 1 1.42 1.42l-4 4A1 1 0 0 1 12 37Z" fill="#003366" class="fill-333333"></path><path d="M16 33a1 1 0 0 1-.71-.29l-4-4a1 1 0 0 1 1.42-1.42l4 4a1 1 0 0 1 0 1.42A1 1 0 0 1 16 33ZM18 37a1 1 0 0 1-.71-.29 1 1 0 0 1 0-1.42l4-4a1 1 0 0 1 1.42 1.42l-4 4A1 1 0 0 1 18 37Z" fill="#003366" class="fill-333333"></path><path d="M22 33a1 1 0 0 1-.71-.29l-4-4a1 1 0 0 1 1.42-1.42l4 4a1 1 0 0 1 0 1.42A1 1 0 0 1 22 33ZM46.14 47.14a1 1 0 0 1-.7-.29L17.15 18.56a1 1 0 1 1 1.41-1.41l28.29 28.29a1 1 0 0 1 0 1.41 1 1 0 0 1-.71.29Z" fill="#003366" class="fill-333333"></path><path d="M43.31 50a1 1 0 0 1-1-1v-5.69a1 1 0 0 1 2 0V49a1 1 0 0 1-1 1Z" fill="#003366" class="fill-333333"></path><path d="M49 44.31h-5.69a1 1 0 0 1 0-2H49a1 1 0 0 1 0 2ZM39.07 45.73a1 1 0 0 1-1-1v-5.66a1 1 0 0 1 2 0v5.66a1 1 0 0 1-1 1Z" fill="#003366" class="fill-333333"></path><path d="M44.73 40.07h-5.66a1 1 0 0 1 0-2h5.66a1 1 0 0 1 0 2ZM20.69 21.69H15a1 1 0 1 1 0-2h5.66a1 1 0 0 1 0 2Z" fill="#003366" class="fill-333333"></path><path d="M20.69 21.69a1 1 0 0 1-1-1V15a1 1 0 1 1 2 0v5.66a1 1 0 0 1-1 1.03ZM24.93 25.93h-5.66a1 1 0 0 1 0-2h5.66a1 1 0 0 1 0 2Z" fill="#003366" class="fill-333333"></path><path d="M24.93 25.93a1 1 0 0 1-1-1v-5.66a1 1 0 0 1 2 0v5.66a1 1 0 0 1-1 1ZM17.86 47.14a1 1 0 0 1-.71-.29 1 1 0 0 1 0-1.41l28.29-28.29a1 1 0 0 1 1.41 1.41L18.56 46.85a1 1 0 0 1-.7.29Z" fill="#003366" class="fill-333333"></path><path d="M20.69 44.31H15a1 1 0 0 1 0-2h5.66a1 1 0 0 1 0 2Z" fill="#003366" class="fill-333333"></path><path d="M20.69 50a1 1 0 0 1-1-1v-5.69a1 1 0 0 1 2 0V49a1 1 0 0 1-1 1ZM24.93 40.07h-5.66a1 1 0 0 1 0-2h5.66a1 1 0 0 1 0 2Z" fill="#003366" class="fill-333333"></path><path d="M24.93 45.73a1 1 0 0 1-1-1v-5.66a1 1 0 0 1 2 0v5.66a1 1 0 0 1-1 1ZM43.31 21.69a1 1 0 0 1-1-1V15a1 1 0 0 1 2 0v5.66a1 1 0 0 1-1 1.03Z" fill="#003366" class="fill-333333"></path><path d="M49 21.69h-5.69a1 1 0 0 1 0-2H49a1 1 0 0 1 0 2ZM39.07 25.93a1 1 0 0 1-1-1v-5.66a1 1 0 0 1 2 0v5.66a1 1 0 0 1-1 1Z" fill="#003366" class="fill-333333"></path><path d="M44.73 25.93h-5.66a1 1 0 0 1 0-2h5.66a1 1 0 0 1 0 2Z" fill="#003366" class="fill-333333"></path></svg>