<svg data-name="Layer 1" viewBox="0 0 64 64" xmlns="http://www.w3.org/2000/svg"><circle cx="32" cy="32" r="11" fill="#003366" class="fill-333333"></circle><rect height="8" rx="2" width="4" x="30" y="8" fill="#003366" class="fill-333333"></rect><rect height="8" rx="2" width="4" x="30" y="48" fill="#003366" class="fill-333333"></rect><rect height="8" rx="2" transform="rotate(90 52 32)" width="4" x="50" y="28" fill="#003366" class="fill-333333"></rect><rect height="8" rx="2" transform="rotate(90 12 32)" width="4" x="10" y="28" fill="#003366" class="fill-333333"></rect><rect height="8" rx="2" transform="rotate(135 46.144 46.142)" width="4" x="44.14" y="42.14" fill="#003366" class="fill-333333"></rect><rect height="8" rx="2" transform="rotate(135 17.856 17.858)" width="4" x="15.86" y="13.86" fill="#003366" class="fill-333333"></rect><rect height="8" rx="2" transform="rotate(-135 17.86 46.143)" width="4" x="15.86" y="42.14" fill="#003366" class="fill-333333"></rect><rect height="8" rx="2" transform="rotate(-135 46.14 17.857)" width="4" x="44.14" y="13.86" fill="#003366" class="fill-333333"></rect></svg>